<svg class="header_logo--logo" id="Layer_3" enable-background="new 0 0 64 64" height="512" viewBox="0 0 64 64" width="512" xmlns="http://www.w3.org/2000/svg"><path d="m47.236 46-23.789-11.895c-.138-.069-.292-.105-.447-.105h-4c-.266 0-.52.105-.707.293l-3.707 3.707h-4.586c-.552 0-1-.448-1-1 0-1.654-1.346-3-3-3h-2c-1.654 0-3 1.346-3 3v18c0 1.654 1.346 3 3 3h35.343c3.915 0 7.596-1.524 10.364-4.293.188-.187.293-.441.293-.707v-2.528c0-1.906-1.059-3.618-2.764-4.472zm-43.236-10h2c.552 0 1 .448 1 1 0 1.654 1.346 3 3 3h5c.266 0 .52-.105.707-.293l3.707-3.707h3.35l.548.274-2.019 2.019 1.414 1.414 2.49-2.49 2.115 1.057-2.019 2.019 1.414 1.414 2.49-2.49 2.115 1.057-2.019 2.019 1.414 1.414 2.49-2.49 2.115 1.057-2.019 2.019 1.414 1.414 2.49-2.49 4.115 2.057-2.726 2.726h-5.586c-.266 0-.52.105-.707.293l-3.707 3.707h-16.586v-2c0-2.206-1.794-4-4-4h-5v-9c0-.552.448-1 1-1zm-1 12h5c1.103 0 2 .897 2 2v2h-7zm36.343 8h-35.343c-.552 0-1-.448-1-1v-1h43.18c-2.022 1.302-4.375 2-6.837 2zm8.657-4h-16.586l2-2h5.586c.266 0 .52-.105.707-.293l3.49-3.49 3.145 1.572c1.022.512 1.658 1.54 1.658 2.683z"/><path d="m60 6h-2c-1.654 0-3 1.346-3 3 0 .551-.448 1-1 1h-4.586l-3.707-3.707c-.187-.188-.441-.293-.707-.293h-4c-.155 0-.309.036-.447.105l-23.789 11.895c-1.705.853-2.764 2.566-2.764 4.472v2.528c0 .265.105.52.293.707 2.769 2.769 6.449 4.293 10.364 4.293h35.343c1.654 0 3-1.346 3-3v-18c0-1.654-1.346-3-3-3zm-18.764 2h3.35l3.707 3.707c.187.188.441.293.707.293h5c1.654 0 3-1.346 3-3 0-.551.448-1 1-1h2c.552 0 1 .449 1 1v9h-5c-2.206 0-4 1.794-4 4v2h-16.586l-3.707-3.707c-.187-.188-.441-.293-.707-.293h-5.586l-2.726-2.726 4.115-2.057 2.49 2.49 1.414-1.414-2.019-2.019 2.115-1.057 2.49 2.49 1.414-1.414-2.019-2.019 2.115-1.057 2.49 2.49 1.414-1.414-2.019-2.019 2.115-1.057 2.49 2.49 1.414-1.414-2.019-2.019zm-25.236 14.472c0-1.144.636-2.172 1.658-2.683l3.145-1.572 3.49 3.49c.187.188.441.293.707.293h5.586l2 2h-16.586zm45 4.528c0 .551-.448 1-1 1h-35.343c-2.461 0-4.815-.698-6.837-2h43.18zm-7-3v-2c0-1.103.897-2 2-2h5v4z"/></svg>